/* XPM */
static char *_86011eecbbd47dea0e19ad3b4406331Dw3kW4WzAzrubh6x[] = {
/* columns rows colors chars-per-pixel */
"64 64 6 1 ",
"  c None",
". c #0A1A2F",
"X c #04373B",
"o c #1A644E",
"O c #40985E",
"+ c #D1CB95",
/* pixels */
"                                                                ",
"                                                                ",
"                                                                ",
"                                                                ",
"                                                                ",
"                                                                ",
"                                                                ",
"                                                                ",
"                                                                ",
"                                                                ",
"                                                                ",
"                                                                ",
"                                    XXXXoooooooo                ",
"                                    XXXXoooooooo                ",
"                                    XXXXoooooooo                ",
"                                    XXXXoooooooo                ",
"                                XXXXXXXXXXXXoooooooo            ",
"                                XXXXXXXXXXXXoooooooo            ",
"                                XXXXXXXXXXXXoooooooo            ",
"                                XXXXXXXXXXXXoooooooo            ",
"                            XXXXXXXX    XXXXoooooooo            ",
"                            XXXXXXXX    XXXXoooooooo            ",
"                            XXXXXXXX    XXXXoooooooo            ",
"                            XXXXXXXX    XXXXoooooooo            ",
"                    XXXXXXXXXXXX    XXXX        oooo            ",
"                    XXXXXXXXXXXX    XXXX        oooo            ",
"                    XXXXXXXXXXXX    XXXX        oooo            ",
"                    XXXXXXXXXXXX    XXXX        oooo            ",
"                ....++++OOOOXXXXXXXX....XXXX                    ",
"                ....++++OOOOXXXXXXXX....XXXX                    ",
"                ....++++OOOOXXXXXXXX....XXXX                    ",
"                ....++++OOOOXXXXXXXX....XXXX                    ",
"            ....++++OOOOOOOOOOOO....++++OOOOXXXX                ",
"            ....++++OOOOOOOOOOOO....++++OOOOXXXX                ",
"            ....++++OOOOOOOOOOOO....++++OOOOXXXX                ",
"            ....++++OOOOOOOOOOOO....++++OOOOXXXX                ",
"            ....OOOOOOOOOOOO....++++OOOOOOOOOOOOXXXX            ",
"            ....OOOOOOOOOOOO....++++OOOOOOOOOOOOXXXX            ",
"            ....OOOOOOOOOOOO....++++OOOOOOOOOOOOXXXX            ",
"            ....OOOOOOOOOOOO....++++OOOOOOOOOOOOXXXX            ",
"                ....OOOOOOOO....OOOOOOOOOOOOOOOOXXXX            ",
"                ....OOOOOOOO....OOOOOOOOOOOOOOOOXXXX            ",
"                ....OOOOOOOO....OOOOOOOOOOOOOOOOXXXX            ",
"                ....OOOOOOOO....OOOOOOOOOOOOOOOOXXXX            ",
"                    ........    ....OOOOOOOO....                ",
"                    ........    ....OOOOOOOO....                ",
"                    ........    ....OOOOOOOO....                ",
"                    ........    ....OOOOOOOO....                ",
"                                    ........                    ",
"                                    ........                    ",
"                                    ........                    ",
"                                    ........                    ",
"                                                                ",
"                                                                ",
"                                                                ",
"                                                                ",
"                                                                ",
"                                                                ",
"                                                                ",
"                                                                ",
"                                                                ",
"                                                                ",
"                                                                ",
"                                                                "
};
