/* XPM */
static char *f8f38db282254bdef68d9b5c44a88501IuKBwprYJngANNaf[] = {
/* columns rows colors chars-per-pixel */
"64 64 2 1 ",
"  c None",
". c #D1CB95",
/* pixels */
"                                                                ",
"                                                                ",
"                                                                ",
"                                                                ",
"                        ....................                    ",
"                        ....................                    ",
"                        ....................                    ",
"                        ....................                    ",
"                ....................................            ",
"                ....................................            ",
"                ....................................            ",
"                ....................................            ",
"            ............................................        ",
"            ............................................        ",
"            ............................................        ",
"            ............................................        ",
"        ....................................................    ",
"        ....................................................    ",
"        ....................................................    ",
"        ....................................................    ",
"        ....................................................    ",
"        ....................................................    ",
"        ....................................................    ",
"        ....................................................    ",
"    ............................................                ",
"    ............................................                ",
"    ............................................                ",
"    ............................................                ",
"    ........................                                    ",
"    ........................                                    ",
"    ........................                                    ",
"    ........................                                    ",
"    ....................................                        ",
"    ....................................                        ",
"    ....................................                        ",
"    ....................................                        ",
"    ............................................                ",
"    ............................................                ",
"    ............................................                ",
"    ............................................                ",
"        ....................................................    ",
"        ....................................................    ",
"        ....................................................    ",
"        ....................................................    ",
"        ....................................................    ",
"        ....................................................    ",
"        ....................................................    ",
"        ....................................................    ",
"            ............................................        ",
"            ............................................        ",
"            ............................................        ",
"            ............................................        ",
"                ....................................            ",
"                ....................................            ",
"                ....................................            ",
"                ....................................            ",
"                        ....................                    ",
"                        ....................                    ",
"                        ....................                    ",
"                        ....................                    ",
"                                                                ",
"                                                                ",
"                                                                ",
"                                                                "
};
