/* XPM */
static char *_0c8081f706446a7a1324c0e3d4c6f9cDPwP7QKGBecZRGUC[] = {
/* columns rows colors chars-per-pixel */
"64 64 4 1 ",
"  c #0A1A2F",
". c #04373B",
"X c #1A644E",
"o c #40985E",
/* pixels */
"                                                                ",
"                                                                ",
"                                                                ",
"                                                                ",
"        ooooXXXX........ooooXXXX........XXXXXXXXXXXX            ",
"        ooooXXXX........ooooXXXX........XXXXXXXXXXXX            ",
"        ooooXXXX........ooooXXXX........XXXXXXXXXXXX            ",
"        ooooXXXX........ooooXXXX........XXXXXXXXXXXX            ",
"        ooooXXXXXXXX....ooooXXXXXXXXXXXXXXXX    XXXXXXXX        ",
"        ooooXXXXXXXX....ooooXXXXXXXXXXXXXXXX    XXXXXXXX        ",
"        ooooXXXXXXXX....ooooXXXXXXXXXXXXXXXX    XXXXXXXX        ",
"        ooooXXXXXXXX....ooooXXXXXXXXXXXXXXXX    XXXXXXXX        ",
"                ....................                            ",
"                ....................                            ",
"                ....................                            ",
"                ....................                            ",
"    XXXX    XXXXXXXXXXXXXXXXoooo    XXXXXXXXXXXXXXXXoooo        ",
"    XXXX    XXXXXXXXXXXXXXXXoooo    XXXXXXXXXXXXXXXXoooo        ",
"    XXXX    XXXXXXXXXXXXXXXXoooo    XXXXXXXXXXXXXXXXoooo        ",
"    XXXX    XXXXXXXXXXXXXXXXoooo    XXXXXXXXXXXXXXXXoooo        ",
"    XXXXXXXXXXXX    ....XXXXoooo    XXXXXXXX....XXXXXXXXoooo    ",
"    XXXXXXXXXXXX    ....XXXXoooo    XXXXXXXX....XXXXXXXXoooo    ",
"    XXXXXXXXXXXX    ....XXXXoooo    XXXXXXXX....XXXXXXXXoooo    ",
"    XXXXXXXXXXXX    ....XXXXoooo    XXXXXXXX....XXXXXXXXoooo    ",
"    ....                                        ............    ",
"    ....                                        ............    ",
"    ....                                        ............    ",
"    ....                                        ............    ",
"    XXXXXXXXXXXX    XXXXXXXXoooo        XXXX....XXXXXXXXoooo    ",
"    XXXXXXXXXXXX    XXXXXXXXoooo        XXXX....XXXXXXXXoooo    ",
"    XXXXXXXXXXXX    XXXXXXXXoooo        XXXX....XXXXXXXXoooo    ",
"    XXXXXXXXXXXX    XXXXXXXXoooo        XXXX....XXXXXXXXoooo    ",
"    ooooXXXXXXXX....    XXXXXXXXXXXXXXXXXXXX....XXXXXXXXXXXX    ",
"    ooooXXXXXXXX....    XXXXXXXXXXXXXXXXXXXX....XXXXXXXXXXXX    ",
"    ooooXXXXXXXX....    XXXXXXXXXXXXXXXXXXXX....XXXXXXXXXXXX    ",
"    ooooXXXXXXXX....    XXXXXXXXXXXXXXXXXXXX....XXXXXXXXXXXX    ",
"    ................                        ....        ....    ",
"    ................                        ....        ....    ",
"    ................                        ....        ....    ",
"    ................                        ....        ....    ",
"    ooooXXXXXXXXXXXXXXXXoooo    ooooXXXXXXXXXXXX    XXXX....    ",
"    ooooXXXXXXXXXXXXXXXXoooo    ooooXXXXXXXXXXXX    XXXX....    ",
"    ooooXXXXXXXXXXXXXXXXoooo    ooooXXXXXXXXXXXX    XXXX....    ",
"    ooooXXXXXXXXXXXXXXXXoooo    ooooXXXXXXXXXXXX    XXXX....    ",
"    XXXXXXXX........XXXXoooo    XXXXXXXX    XXXXXXXXXXXX        ",
"    XXXXXXXX........XXXXoooo    XXXXXXXX    XXXXXXXXXXXX        ",
"    XXXXXXXX........XXXXoooo    XXXXXXXX    XXXXXXXXXXXX        ",
"    XXXXXXXX........XXXXoooo    XXXXXXXX    XXXXXXXXXXXX        ",
"        ............            ....                            ",
"        ............            ....                            ",
"        ............            ....                            ",
"        ............            ....                            ",
"        XXXXooooXXXXXXXXXXXXXXXXXXXXoooo    ooooooooXXXXXXXX    ",
"        XXXXooooXXXXXXXXXXXXXXXXXXXXoooo    ooooooooXXXXXXXX    ",
"        XXXXooooXXXXXXXXXXXXXXXXXXXXoooo    ooooooooXXXXXXXX    ",
"        XXXXooooXXXXXXXXXXXXXXXXXXXXoooo    ooooooooXXXXXXXX    ",
"        ooooXXXXXXXX        ....XXXXXXXX....XXXXXXXXXXXX        ",
"        ooooXXXXXXXX        ....XXXXXXXX....XXXXXXXXXXXX        ",
"        ooooXXXXXXXX        ....XXXXXXXX....XXXXXXXXXXXX        ",
"        ooooXXXXXXXX        ....XXXXXXXX....XXXXXXXXXXXX        ",
"                                                                ",
"                                                                ",
"                                                                ",
"                                                                "
};
